# xmcd
# Track frame offsets:
# 150
# 10525
# 30092
#
# Disc length: 616 seconds
# Revision: 0
# Processed by: cddbd v1.4PL0 Copyright (c) Steve Scherf et al.
# Submitted via: VisiTrax 2.9.5.181 - For more info visit www.synapsa.com
#
DISCID=0c026603
DTITLE=Dale Watson and his Lone Stars - The Truckin' Sessions (Bonus Disc)
DYEAR=1998
DGENRE=
TTITLE0=Good Luck 'n' Good Truckin' Tonite
TTITLE1=Long Black Veil
TTITLE2=Honky Tonk Honeymoon
EXTD=
EXTT0=
EXTT1=
EXTT2=
PLAYORDER=
